<svg width="1080" height="916" viewBox="0 0 1080 916" fill="none" xmlns="http://www.w3.org/2000/svg">
<rect x="80.3432" y="13.4758" width="918.313" height="15.0282" rx="7.5" fill="#AEAEB2" stroke="#85858B"/>
<rect x="84.8935" y="17.4261" width="909.211" height="7.12807" rx="3.5" fill="#85858B" stroke="#85858B"/>
<g filter="url(#filter0_dd_301_527)">
<mask id="path-3-inside-1_301_527" fill="white">
<path fill-rule="evenodd" clip-rule="evenodd" d="M976.173 22.9899C976.173 21.8853 975.278 20.9899 974.173 20.9899H104.826C103.722 20.9899 102.826 21.8853 102.826 22.9899L102.826 838.412C102.826 839.006 103.09 839.569 103.546 839.949L128.838 861.026C129.579 861.644 130.657 861.644 131.399 861.026L156.13 840.416C156.871 839.798 157.949 839.798 158.691 840.416L183.422 861.026C184.164 861.644 185.241 861.644 185.983 861.026L210.714 840.416C211.456 839.798 212.533 839.798 213.275 840.416L238.006 861.026C238.748 861.644 239.825 861.644 240.567 861.026L265.298 840.416C266.04 839.798 267.117 839.798 267.859 840.416L292.59 861.026C293.332 861.644 294.409 861.644 295.151 861.026L319.882 840.416C320.624 839.798 321.702 839.798 322.443 840.416L347.175 861.026C347.916 861.644 348.994 861.644 349.735 861.026L374.467 840.416C375.208 839.798 376.286 839.798 377.027 840.416L401.759 861.026C402.5 861.644 403.578 861.644 404.32 861.026L429.051 840.416C429.793 839.798 430.87 839.798 431.612 840.416L456.343 861.026C457.085 861.644 458.162 861.644 458.904 861.026L483.635 840.416C484.377 839.798 485.454 839.798 486.196 840.416L510.927 861.026C511.669 861.644 512.746 861.644 513.488 861.026L538.219 840.416C538.961 839.798 540.038 839.798 540.78 840.416L565.511 861.026C566.253 861.644 567.331 861.644 568.072 861.026L592.804 840.416C593.545 839.798 594.623 839.798 595.364 840.416L620.096 861.026C620.837 861.644 621.915 861.644 622.656 861.026L647.388 840.416C648.13 839.798 649.207 839.798 649.949 840.416L674.68 861.026C675.422 861.644 676.499 861.644 677.241 861.026L701.972 840.416C702.714 839.798 703.791 839.798 704.533 840.416L729.264 861.026C730.006 861.644 731.083 861.644 731.825 861.026L756.556 840.416C757.298 839.798 758.375 839.798 759.117 840.416L783.848 861.026C784.59 861.644 785.667 861.644 786.409 861.026L811.14 840.416C811.882 839.798 812.96 839.798 813.701 840.416L838.433 861.026C839.174 861.644 840.252 861.644 840.993 861.026L865.725 840.416C866.466 839.798 867.544 839.798 868.286 840.416L893.017 861.026C893.759 861.644 894.836 861.644 895.578 861.026L920.309 840.416C921.051 839.798 922.128 839.798 922.87 840.416L947.601 861.026C948.343 861.644 949.42 861.644 950.162 861.026L975.454 839.949C975.91 839.569 976.174 839.006 976.174 838.412L976.173 22.9899Z"/>
</mask>
<path fill-rule="evenodd" clip-rule="evenodd" d="M976.173 22.9899C976.173 21.8853 975.278 20.9899 974.173 20.9899H104.826C103.722 20.9899 102.826 21.8853 102.826 22.9899L102.826 838.412C102.826 839.006 103.09 839.569 103.546 839.949L128.838 861.026C129.579 861.644 130.657 861.644 131.399 861.026L156.13 840.416C156.871 839.798 157.949 839.798 158.691 840.416L183.422 861.026C184.164 861.644 185.241 861.644 185.983 861.026L210.714 840.416C211.456 839.798 212.533 839.798 213.275 840.416L238.006 861.026C238.748 861.644 239.825 861.644 240.567 861.026L265.298 840.416C266.04 839.798 267.117 839.798 267.859 840.416L292.59 861.026C293.332 861.644 294.409 861.644 295.151 861.026L319.882 840.416C320.624 839.798 321.702 839.798 322.443 840.416L347.175 861.026C347.916 861.644 348.994 861.644 349.735 861.026L374.467 840.416C375.208 839.798 376.286 839.798 377.027 840.416L401.759 861.026C402.5 861.644 403.578 861.644 404.32 861.026L429.051 840.416C429.793 839.798 430.87 839.798 431.612 840.416L456.343 861.026C457.085 861.644 458.162 861.644 458.904 861.026L483.635 840.416C484.377 839.798 485.454 839.798 486.196 840.416L510.927 861.026C511.669 861.644 512.746 861.644 513.488 861.026L538.219 840.416C538.961 839.798 540.038 839.798 540.78 840.416L565.511 861.026C566.253 861.644 567.331 861.644 568.072 861.026L592.804 840.416C593.545 839.798 594.623 839.798 595.364 840.416L620.096 861.026C620.837 861.644 621.915 861.644 622.656 861.026L647.388 840.416C648.13 839.798 649.207 839.798 649.949 840.416L674.68 861.026C675.422 861.644 676.499 861.644 677.241 861.026L701.972 840.416C702.714 839.798 703.791 839.798 704.533 840.416L729.264 861.026C730.006 861.644 731.083 861.644 731.825 861.026L756.556 840.416C757.298 839.798 758.375 839.798 759.117 840.416L783.848 861.026C784.59 861.644 785.667 861.644 786.409 861.026L811.14 840.416C811.882 839.798 812.96 839.798 813.701 840.416L838.433 861.026C839.174 861.644 840.252 861.644 840.993 861.026L865.725 840.416C866.466 839.798 867.544 839.798 868.286 840.416L893.017 861.026C893.759 861.644 894.836 861.644 895.578 861.026L920.309 840.416C921.051 839.798 922.128 839.798 922.87 840.416L947.601 861.026C948.343 861.644 949.42 861.644 950.162 861.026L975.454 839.949C975.91 839.569 976.174 839.006 976.174 838.412L976.173 22.9899Z" fill="url(#paint0_linear_301_527)"/>
<path d="M975.454 839.949L974.814 839.18L975.454 839.949ZM976.174 838.412L977.174 838.412L976.174 838.412ZM947.601 861.026L948.241 860.258L947.601 861.026ZM950.162 861.026L949.522 860.258L950.162 861.026ZM920.309 840.416L920.949 841.184L920.309 840.416ZM922.87 840.416L922.23 841.184L922.87 840.416ZM893.017 861.026L893.657 860.258L893.017 861.026ZM895.578 861.026L894.937 860.258L895.578 861.026ZM865.725 840.416L866.365 841.184L865.725 840.416ZM868.286 840.416L867.645 841.184L868.286 840.416ZM838.433 861.026L839.073 860.258L838.433 861.026ZM840.993 861.026L840.353 860.258L840.993 861.026ZM811.14 840.416L811.781 841.184L811.14 840.416ZM813.701 840.416L813.061 841.184L813.701 840.416ZM783.848 861.026L784.489 860.258L783.848 861.026ZM786.409 861.026L785.769 860.258L786.409 861.026ZM756.556 840.416L757.196 841.184L756.556 840.416ZM759.117 840.416L758.477 841.184L759.117 840.416ZM729.264 861.026L729.904 860.258L729.264 861.026ZM731.825 861.026L731.185 860.258L731.825 861.026ZM701.972 840.416L702.612 841.184L701.972 840.416ZM704.533 840.416L703.893 841.184L704.533 840.416ZM674.68 861.026L675.32 860.258L674.68 861.026ZM677.241 861.026L676.601 860.258L677.241 861.026ZM647.388 840.416L648.028 841.184L647.388 840.416ZM649.949 840.416L649.308 841.184L649.949 840.416ZM620.096 861.026L620.736 860.258L620.096 861.026ZM622.656 861.026L622.016 860.258L622.656 861.026ZM592.804 840.416L592.163 839.648L592.804 840.416ZM595.364 840.416L596.005 839.648L595.364 840.416ZM565.511 861.026L564.871 861.795L565.511 861.026ZM568.072 861.026L568.712 861.795L568.072 861.026ZM538.219 840.416L537.579 839.648L538.219 840.416ZM540.78 840.416L541.42 839.648L540.78 840.416ZM510.927 861.026L510.287 861.795L510.927 861.026ZM513.488 861.026L514.128 861.795L513.488 861.026ZM483.635 840.416L482.995 839.648L483.635 840.416ZM486.196 840.416L486.836 839.648L486.196 840.416ZM456.343 861.026L455.703 861.795L456.343 861.026ZM458.904 861.026L459.544 861.795L458.904 861.026ZM429.051 840.416L428.411 839.648L429.051 840.416ZM431.612 840.416L432.252 839.648L431.612 840.416ZM401.759 861.026L401.119 861.795L401.759 861.026ZM404.32 861.026L404.96 861.795L404.32 861.026ZM374.467 840.416L375.107 841.184L374.467 840.416ZM377.027 840.416L376.387 841.184L377.027 840.416ZM347.175 861.026L346.534 861.795L347.175 861.026ZM349.735 861.026L349.095 860.258L349.735 861.026ZM319.882 840.416L320.523 841.184L319.882 840.416ZM322.443 840.416L321.803 841.184L322.443 840.416ZM292.59 861.026L293.231 860.258L292.59 861.026ZM295.151 861.026L294.511 860.258L295.151 861.026ZM265.298 840.416L265.938 841.184L265.298 840.416ZM267.859 840.416L267.219 841.184L267.859 840.416ZM238.006 861.026L238.646 860.258L238.006 861.026ZM240.567 861.026L239.927 860.258L240.567 861.026ZM210.714 840.416L211.354 841.184L210.714 840.416ZM213.275 840.416L212.635 841.184L213.275 840.416ZM183.422 861.026L182.782 861.795L183.422 861.026ZM185.983 861.026L186.623 861.795L185.983 861.026ZM156.13 840.416L155.49 839.648L156.13 840.416ZM158.691 840.416L159.331 839.648L158.691 840.416ZM128.838 861.026L129.478 860.258L128.838 861.026ZM131.399 861.026L130.758 860.258L131.399 861.026ZM103.546 839.949L102.906 840.717L103.546 839.949ZM976.173 22.9899L977.173 22.9899L976.173 22.9899ZM104.826 21.9899H974.173V19.9899H104.826V21.9899ZM103.826 838.412L103.826 22.9899L101.826 22.9899L101.826 838.412L103.826 838.412ZM129.478 860.258L104.186 839.181L102.906 840.717L128.198 861.794L129.478 860.258ZM155.49 839.648L130.758 860.258L132.039 861.794L156.77 841.184L155.49 839.648ZM184.062 860.258L159.331 839.648L158.05 841.184L182.782 861.795L184.062 860.258ZM210.074 839.648L185.342 860.258L186.623 861.795L211.354 841.184L210.074 839.648ZM238.646 860.258L213.915 839.648L212.635 841.184L237.366 861.795L238.646 860.258ZM264.658 839.648L239.927 860.258L241.207 861.795L265.938 841.184L264.658 839.648ZM293.231 860.258L268.499 839.648L267.219 841.184L291.95 861.795L293.231 860.258ZM319.242 839.648L294.511 860.258L295.791 861.795L320.523 841.184L319.242 839.648ZM347.815 860.258L323.083 839.648L321.803 841.184L346.534 861.795L347.815 860.258ZM373.826 839.648L349.095 860.258L350.376 861.795L375.107 841.184L373.826 839.648ZM402.399 860.258L377.668 839.648L376.387 841.184L401.119 861.795L402.399 860.258ZM428.411 839.648L403.679 860.258L404.96 861.795L429.691 841.184L428.411 839.648ZM456.983 860.258L432.252 839.648L430.971 841.184L455.703 861.795L456.983 860.258ZM482.995 839.648L458.264 860.258L459.544 861.795L484.275 841.184L482.995 839.648ZM511.567 860.258L486.836 839.648L485.556 841.184L510.287 861.795L511.567 860.258ZM537.579 839.648L512.848 860.258L514.128 861.795L538.86 841.184L537.579 839.648ZM566.152 860.258L541.42 839.648L540.14 841.184L564.871 861.795L566.152 860.258ZM592.163 839.648L567.432 860.258L568.712 861.795L593.444 841.184L592.163 839.648ZM620.736 860.258L596.005 839.648L594.724 841.184L619.455 861.795L620.736 860.258ZM646.748 839.648L622.016 860.258L623.297 861.795L648.028 841.184L646.748 839.648ZM675.32 860.258L650.589 839.648L649.308 841.184L674.04 861.795L675.32 860.258ZM701.332 839.648L676.601 860.258L677.881 861.795L702.612 841.184L701.332 839.648ZM729.904 860.258L705.173 839.648L703.893 841.184L728.624 861.795L729.904 860.258ZM755.916 839.648L731.185 860.258L732.465 861.795L757.196 841.184L755.916 839.648ZM784.489 860.258L759.757 839.648L758.477 841.184L783.208 861.795L784.489 860.258ZM810.5 839.648L785.769 860.258L787.049 861.795L811.781 841.184L810.5 839.648ZM839.073 860.258L814.341 839.648L813.061 841.184L837.792 861.795L839.073 860.258ZM865.085 839.648L840.353 860.258L841.634 861.795L866.365 841.184L865.085 839.648ZM893.657 860.258L868.926 839.648L867.645 841.184L892.377 861.795L893.657 860.258ZM919.669 839.648L894.937 860.258L896.218 861.795L920.949 841.184L919.669 839.648ZM948.241 860.258L923.51 839.648L922.23 841.184L946.961 861.795L948.241 860.258ZM950.802 861.795L976.094 840.717L974.814 839.18L949.522 860.258L950.802 861.795ZM975.173 22.9899L975.174 838.412L977.174 838.412L977.173 22.9899L975.173 22.9899ZM976.094 840.717C976.778 840.147 977.174 839.303 977.174 838.412L975.174 838.412C975.174 838.709 975.042 838.99 974.814 839.18L976.094 840.717ZM946.961 861.795C948.073 862.722 949.69 862.722 950.802 861.795L949.522 860.258C949.151 860.567 948.612 860.567 948.241 860.258L946.961 861.795ZM920.949 841.184C921.32 840.875 921.859 840.875 922.23 841.184L923.51 839.648C922.397 838.721 920.781 838.721 919.669 839.648L920.949 841.184ZM892.377 861.795C893.489 862.722 895.105 862.722 896.218 861.795L894.937 860.258C894.567 860.567 894.028 860.567 893.657 860.258L892.377 861.795ZM866.365 841.184C866.736 840.875 867.274 840.875 867.645 841.184L868.926 839.648C867.813 838.721 866.197 838.721 865.085 839.648L866.365 841.184ZM837.792 861.795C838.905 862.722 840.521 862.722 841.634 861.795L840.353 860.258C839.982 860.567 839.444 860.567 839.073 860.258L837.792 861.795ZM811.781 841.184C812.152 840.875 812.69 840.875 813.061 841.184L814.341 839.648C813.229 838.721 811.613 838.721 810.5 839.648L811.781 841.184ZM783.208 861.795C784.321 862.722 785.937 862.722 787.049 861.795L785.769 860.258C785.398 860.567 784.859 860.567 784.489 860.258L783.208 861.795ZM757.196 841.184C757.567 840.875 758.106 840.875 758.477 841.184L759.757 839.648C758.645 838.721 757.029 838.721 755.916 839.648L757.196 841.184ZM728.624 861.795C729.737 862.722 731.353 862.722 732.465 861.795L731.185 860.258C730.814 860.567 730.275 860.567 729.904 860.258L728.624 861.795ZM702.612 841.184C702.983 840.875 703.522 840.875 703.893 841.184L705.173 839.648C704.06 838.721 702.444 838.721 701.332 839.648L702.612 841.184ZM674.04 861.795C675.152 862.722 676.768 862.722 677.881 861.795L676.601 860.258C676.23 860.567 675.691 860.567 675.32 860.258L674.04 861.795ZM648.028 841.184C648.399 840.875 648.938 840.875 649.308 841.184L650.589 839.648C649.476 838.721 647.86 838.721 646.748 839.648L648.028 841.184ZM619.455 861.795C620.568 862.722 622.184 862.722 623.297 861.795L622.016 860.258C621.645 860.567 621.107 860.567 620.736 860.258L619.455 861.795ZM593.444 841.184C593.815 840.875 594.353 840.875 594.724 841.184L596.005 839.648C594.892 838.721 593.276 838.721 592.163 839.648L593.444 841.184ZM564.871 861.795C565.984 862.722 567.6 862.722 568.712 861.795L567.432 860.258C567.061 860.567 566.523 860.567 566.152 860.258L564.871 861.795ZM538.86 841.184C539.23 840.875 539.769 840.875 540.14 841.184L541.42 839.648C540.308 838.721 538.692 838.721 537.579 839.648L538.86 841.184ZM510.287 861.795C511.4 862.722 513.016 862.722 514.128 861.795L512.848 860.258C512.477 860.567 511.938 860.567 511.567 860.258L510.287 861.795ZM484.275 841.184C484.646 840.875 485.185 840.875 485.556 841.184L486.836 839.648C485.724 838.721 484.107 838.721 482.995 839.648L484.275 841.184ZM455.703 861.795C456.815 862.722 458.431 862.722 459.544 861.795L458.264 860.258C457.893 860.567 457.354 860.567 456.983 860.258L455.703 861.795ZM429.691 841.184C430.062 840.875 430.601 840.875 430.971 841.184L432.252 839.648C431.139 838.721 429.523 838.721 428.411 839.648L429.691 841.184ZM401.119 861.795C402.231 862.722 403.847 862.722 404.96 861.795L403.679 860.258C403.309 860.567 402.77 860.567 402.399 860.258L401.119 861.795ZM375.107 841.184C375.478 840.875 376.016 840.875 376.387 841.184L377.668 839.648C376.555 838.721 374.939 838.721 373.826 839.648L375.107 841.184ZM346.534 861.795C347.647 862.722 349.263 862.722 350.376 861.795L349.095 860.258C348.724 860.567 348.186 860.567 347.815 860.258L346.534 861.795ZM320.523 841.184C320.894 840.875 321.432 840.875 321.803 841.184L323.083 839.648C321.971 838.721 320.355 838.721 319.242 839.648L320.523 841.184ZM291.95 861.795C293.063 862.722 294.679 862.722 295.791 861.795L294.511 860.258C294.14 860.567 293.601 860.567 293.231 860.258L291.95 861.795ZM265.938 841.184C266.309 840.875 266.848 840.875 267.219 841.184L268.499 839.648C267.387 838.721 265.771 838.721 264.658 839.648L265.938 841.184ZM237.366 861.795C238.478 862.722 240.095 862.722 241.207 861.795L239.927 860.258C239.556 860.567 239.017 860.567 238.646 860.258L237.366 861.795ZM211.354 841.184C211.725 840.875 212.264 840.875 212.635 841.184L213.915 839.648C212.802 838.721 211.186 838.721 210.074 839.648L211.354 841.184ZM182.782 861.795C183.894 862.722 185.51 862.722 186.623 861.795L185.342 860.258C184.972 860.567 184.433 860.567 184.062 860.258L182.782 861.795ZM156.77 841.184C157.141 840.875 157.68 840.875 158.05 841.184L159.331 839.648C158.218 838.721 156.602 838.721 155.49 839.648L156.77 841.184ZM128.198 861.794C129.31 862.722 130.926 862.722 132.039 861.794L130.758 860.258C130.388 860.567 129.849 860.567 129.478 860.258L128.198 861.794ZM101.826 838.412C101.826 839.303 102.222 840.147 102.906 840.717L104.186 839.181C103.958 838.991 103.826 838.709 103.826 838.412L101.826 838.412ZM974.173 21.9899C974.726 21.9899 975.173 22.4376 975.173 22.9899L977.173 22.9899C977.173 21.333 975.83 19.9899 974.173 19.9899V21.9899ZM104.826 19.9899C103.169 19.9899 101.826 21.333 101.826 22.9899L103.826 22.9899C103.826 22.4376 104.274 21.9899 104.826 21.9899V19.9899Z" fill="#EBEBEC" mask="url(#path-3-inside-1_301_527)"/>
</g>
<rect x="102.826" y="20.9899" width="873.347" height="7.88233" fill="url(#paint1_linear_301_527)"/>
<rect x="94.1897" y="17.9846" width="895.726" height="3.00528" fill="#85858B"/>
<g filter="url(#filter1_f_301_527)">
<path d="M976.174 28.9809H1075V900H1044.77L976.174 28.9809Z" fill="white"/>
</g>
<g filter="url(#filter2_f_301_527)">
<path d="M102.826 28.9809H3.99999V900H34.2307L102.826 28.9809Z" fill="white"/>
</g>
<defs>
<filter id="filter0_dd_301_527" x="72.8262" y="0.989868" width="933.347" height="900.5" filterUnits="userSpaceOnUse" color-interpolation-filters="sRGB">
<feFlood flood-opacity="0" result="BackgroundImageFix"/>
<feColorMatrix in="SourceAlpha" type="matrix" values="0 0 0 0 0 0 0 0 0 0 0 0 0 0 0 0 0 0 127 0" result="hardAlpha"/>
<feOffset dy="10"/>
<feGaussianBlur stdDeviation="15"/>
<feColorMatrix type="matrix" values="0 0 0 0 0.203922 0 0 0 0 0.203922 0 0 0 0 0.243137 0 0 0 0.15 0"/>
<feBlend mode="normal" in2="BackgroundImageFix" result="effect1_dropShadow_301_527"/>
<feColorMatrix in="SourceAlpha" type="matrix" values="0 0 0 0 0 0 0 0 0 0 0 0 0 0 0 0 0 0 127 0" result="hardAlpha"/>
<feOffset dy="4"/>
<feGaussianBlur stdDeviation="5"/>
<feColorMatrix type="matrix" values="0 0 0 0 0.203922 0 0 0 0 0.203922 0 0 0 0 0.243137 0 0 0 0.3 0"/>
<feBlend mode="normal" in2="effect1_dropShadow_301_527" result="effect2_dropShadow_301_527"/>
<feBlend mode="normal" in="SourceGraphic" in2="effect2_dropShadow_301_527" result="shape"/>
</filter>
<filter id="filter1_f_301_527" x="960.174" y="12.9809" width="130.826" height="903.019" filterUnits="userSpaceOnUse" color-interpolation-filters="sRGB">
<feFlood flood-opacity="0" result="BackgroundImageFix"/>
<feBlend mode="normal" in="SourceGraphic" in2="BackgroundImageFix" result="shape"/>
<feGaussianBlur stdDeviation="8" result="effect1_foregroundBlur_301_527"/>
</filter>
<filter id="filter2_f_301_527" x="-12" y="12.9809" width="130.826" height="903.019" filterUnits="userSpaceOnUse" color-interpolation-filters="sRGB">
<feFlood flood-opacity="0" result="BackgroundImageFix"/>
<feBlend mode="normal" in="SourceGraphic" in2="BackgroundImageFix" result="shape"/>
<feGaussianBlur stdDeviation="8" result="effect1_foregroundBlur_301_527"/>
</filter>
<linearGradient id="paint0_linear_301_527" x1="666.622" y1="20.9899" x2="666.622" y2="928.323" gradientUnits="userSpaceOnUse">
<stop stop-color="#E8E8E8"/>
<stop offset="0.0760776" stop-color="white"/>
<stop offset="0.497673" stop-color="white"/>
<stop offset="0.862458" stop-color="#E8E8E8"/>
</linearGradient>
<linearGradient id="paint1_linear_301_527" x1="539.5" y1="20.9899" x2="539.5" y2="26.7855" gradientUnits="userSpaceOnUse">
<stop offset="0.197917" stop-color="#D6D6D8"/>
<stop offset="0.71875" stop-color="#C2C2C5" stop-opacity="0"/>
</linearGradient>
</defs>
</svg>
